<svg xmlns="http://www.w3.org/2000/svg" width="15.621" height="15.621" viewBox="0 0 15.621 15.621">
  <g id="그룹_571" data-name="그룹 571" transform="translate(0.75 0.75)">
    <path id="패스_1332" data-name="패스 1332" d="M3.412,2h11.3a1.412,1.412,0,0,1,1.412,1.412V6.236a1.412,1.412,0,0,1-1.412,1.412H3.412A1.412,1.412,0,0,1,2,6.236V3.412A1.412,1.412,0,0,1,3.412,2Z" transform="translate(-2 -2)" fill="none" stroke="#fff" stroke-linecap="round" stroke-linejoin="round" stroke-width="1.5"/>
    <path id="패스_1333" data-name="패스 1333" d="M3.412,14h11.3a1.412,1.412,0,0,1,1.412,1.412v2.824a1.412,1.412,0,0,1-1.412,1.412H3.412A1.412,1.412,0,0,1,2,18.236V15.412A1.412,1.412,0,0,1,3.412,14Z" transform="translate(-2 -5.527)" fill="none" stroke="#fff" stroke-linecap="round" stroke-linejoin="round" stroke-width="1.5"/>
    <path id="패스_1334" data-name="패스 1334" d="M6,6H6" transform="translate(-3.176 -3.176)" fill="none" stroke="#fff" stroke-linecap="round" stroke-linejoin="round" stroke-width="1.5"/>
    <path id="패스_1335" data-name="패스 1335" d="M6,18H6" transform="translate(-3.176 -6.703)" fill="none" stroke="#fff" stroke-linecap="round" stroke-linejoin="round" stroke-width="1.5"/>
  </g>
</svg>
