<svg id="그룹_9829" data-name="그룹 9829" xmlns="http://www.w3.org/2000/svg" width="15.884" height="16.857" viewBox="0 0 15.884 16.857">
  <g id="그룹_9828" data-name="그룹 9828" transform="translate(0 0)">
    <g id="그룹_9791" data-name="그룹 9791" transform="translate(0)">
      <g id="그룹_9787" data-name="그룹 9787">
        <g id="그룹_9776" data-name="그룹 9776">
          <g id="그룹_9775" data-name="그룹 9775">
            <g id="그룹_9774" data-name="그룹 9774">
              <path id="패스_10070" data-name="패스 10070" d="M24.445,15.109H13.661a1.278,1.278,0,0,1-1.276-1.276V12.276A1.278,1.278,0,0,1,13.661,11H24.445a1.278,1.278,0,0,1,1.276,1.276v1.557A1.278,1.278,0,0,1,24.445,15.109ZM13.661,11.7a.575.575,0,0,0-.574.574v1.557a.575.575,0,0,0,.574.574H24.445a.575.575,0,0,0,.574-.574V12.276a.575.575,0,0,0-.574-.574Z" transform="translate(-12.385 -11)" fill="#1a3350"/>
            </g>
          </g>
        </g>
        <g id="그룹_9779" data-name="그룹 9779" transform="translate(1.429 1.703)">
          <g id="그룹_9778" data-name="그룹 9778">
            <g id="그룹_9777" data-name="그룹 9777">
              <path id="패스_10071" data-name="패스 10071" d="M21.43,16.552H16.8a.351.351,0,0,1,0-.7H21.43a.351.351,0,0,1,0,.7Z" transform="translate(-16.454 -15.85)" fill="#1a3350"/>
            </g>
          </g>
        </g>
        <g id="그룹_9786" data-name="그룹 9786" transform="translate(8.526 1.705)">
          <g id="그룹_9782" data-name="그룹 9782">
            <g id="그룹_9781" data-name="그룹 9781">
              <g id="그룹_9780" data-name="그룹 9780">
                <path id="패스_10072" data-name="패스 10072" d="M37.016,16.555a.352.352,0,0,1-.137-.025.355.355,0,0,1-.112-.077.344.344,0,0,1,0-.5.308.308,0,0,1,.112-.077.358.358,0,0,1,.383.077.349.349,0,0,1-.246.6Z" transform="translate(-36.662 -15.855)" fill="#1a3350"/>
              </g>
            </g>
          </g>
          <g id="그룹_9785" data-name="그룹 9785" transform="translate(2.371)">
            <g id="그룹_9784" data-name="그룹 9784">
              <g id="그룹_9783" data-name="그룹 9783">
                <path id="패스_10073" data-name="패스 10073" d="M43.763,16.555a.353.353,0,0,1-.249-.1.362.362,0,0,1-.1-.25.442.442,0,0,1,.007-.067.208.208,0,0,1,.021-.067.19.19,0,0,1,.032-.06.345.345,0,0,1,.042-.053.358.358,0,0,1,.383-.077.323.323,0,0,1,.116.077.34.34,0,0,1,.1.246.349.349,0,0,1-.1.25A.354.354,0,0,1,43.763,16.555Z" transform="translate(-43.412 -15.855)" fill="#1a3350"/>
              </g>
            </g>
          </g>
        </g>
      </g>
      <g id="그룹_9790" data-name="그룹 9790" transform="translate(12.634 1.702)">
        <g id="그룹_9789" data-name="그룹 9789">
          <g id="그룹_9788" data-name="그룹 9788">
            <path id="패스_10074" data-name="패스 10074" d="M51.26,22.925a.351.351,0,0,1-.351-.351V17.959A1.411,1.411,0,0,0,49.5,16.55h-.788a.351.351,0,0,1,0-.7H49.5a2.114,2.114,0,0,1,2.111,2.111v4.615A.351.351,0,0,1,51.26,22.925Z" transform="translate(-48.361 -15.848)" fill="#1a3350"/>
          </g>
        </g>
      </g>
    </g>
    <g id="그룹_9809" data-name="그룹 9809" transform="translate(0 6.374)">
      <g id="그룹_9805" data-name="그룹 9805">
        <g id="그룹_9794" data-name="그룹 9794">
          <g id="그룹_9793" data-name="그룹 9793">
            <g id="그룹_9792" data-name="그룹 9792">
              <path id="패스_10075" data-name="패스 10075" d="M24.445,33.259H13.661a1.278,1.278,0,0,1-1.276-1.276V30.426a1.278,1.278,0,0,1,1.276-1.276H24.445a1.278,1.278,0,0,1,1.276,1.276v1.556A1.278,1.278,0,0,1,24.445,33.259ZM13.661,29.852a.575.575,0,0,0-.574.574v1.556a.575.575,0,0,0,.574.574H24.445a.575.575,0,0,0,.574-.574V30.426a.575.575,0,0,0-.574-.574Z" transform="translate(-12.385 -29.15)" fill="#1a3350"/>
            </g>
          </g>
        </g>
        <g id="그룹_9797" data-name="그룹 9797" transform="translate(1.429 1.703)">
          <g id="그룹_9796" data-name="그룹 9796">
            <g id="그룹_9795" data-name="그룹 9795">
              <path id="패스_10076" data-name="패스 10076" d="M21.43,34.7H16.8a.351.351,0,0,1,0-.7H21.43a.351.351,0,0,1,0,.7Z" transform="translate(-16.454 -34)" fill="#1a3350"/>
            </g>
          </g>
        </g>
        <g id="그룹_9804" data-name="그룹 9804" transform="translate(8.526 1.704)">
          <g id="그룹_9800" data-name="그룹 9800" transform="translate(0 0.001)">
            <g id="그룹_9799" data-name="그룹 9799">
              <g id="그룹_9798" data-name="그룹 9798">
                <path id="패스_10077" data-name="패스 10077" d="M37.016,34.7a.349.349,0,0,1-.137-.025.356.356,0,0,1-.112-.077.35.35,0,0,1-.105-.249.345.345,0,0,1,.028-.134.416.416,0,0,1,.077-.116.347.347,0,0,1,.112-.074.364.364,0,0,1,.383.074.348.348,0,0,1,0,.5A.34.34,0,0,1,37.016,34.7Z" transform="translate(-36.662 -34.005)" fill="#1a3350"/>
              </g>
            </g>
          </g>
          <g id="그룹_9803" data-name="그룹 9803" transform="translate(2.371)">
            <g id="그룹_9802" data-name="그룹 9802">
              <g id="그룹_9801" data-name="그룹 9801">
                <path id="패스_10078" data-name="패스 10078" d="M43.763,34.7a.353.353,0,0,1-.249-.1l-.042-.053a.21.21,0,0,1-.032-.063.219.219,0,0,1-.021-.063.485.485,0,0,1-.007-.07.365.365,0,0,1,.1-.246.352.352,0,0,1,.383-.077.323.323,0,0,1,.116.077.425.425,0,0,1,.077.112.362.362,0,0,1-.077.383.451.451,0,0,1-.116.077A.345.345,0,0,1,43.763,34.7Z" transform="translate(-43.412 -34.001)" fill="#1a3350"/>
              </g>
            </g>
          </g>
        </g>
      </g>
      <g id="그룹_9808" data-name="그룹 9808" transform="translate(12.634 1.702)">
        <g id="그룹_9807" data-name="그룹 9807">
          <g id="그룹_9806" data-name="그룹 9806">
            <path id="패스_10079" data-name="패스 10079" d="M51.26,34.7H48.712a.351.351,0,1,1,0-.7H51.26a.351.351,0,1,1,0,.7Z" transform="translate(-48.361 -33.997)" fill="#1a3350"/>
          </g>
        </g>
      </g>
    </g>
    <g id="그룹_9827" data-name="그룹 9827" transform="translate(0 8.078)">
      <g id="그룹_9823" data-name="그룹 9823" transform="translate(0 4.671)">
        <g id="그룹_9812" data-name="그룹 9812">
          <g id="그룹_9811" data-name="그룹 9811">
            <g id="그룹_9810" data-name="그룹 9810">
              <path id="패스_10080" data-name="패스 10080" d="M24.445,51.409H13.661a1.278,1.278,0,0,1-1.276-1.276V48.576A1.278,1.278,0,0,1,13.661,47.3H24.445a1.278,1.278,0,0,1,1.276,1.276v1.557A1.278,1.278,0,0,1,24.445,51.409ZM13.661,48a.575.575,0,0,0-.574.574v1.557a.575.575,0,0,0,.574.574H24.445a.575.575,0,0,0,.574-.574V48.576A.575.575,0,0,0,24.445,48Z" transform="translate(-12.385 -47.3)" fill="#1a3350"/>
            </g>
          </g>
        </g>
        <g id="그룹_9815" data-name="그룹 9815" transform="translate(1.429 1.703)">
          <g id="그룹_9814" data-name="그룹 9814">
            <g id="그룹_9813" data-name="그룹 9813">
              <path id="패스_10081" data-name="패스 10081" d="M21.43,52.852H16.8a.351.351,0,0,1,0-.7H21.43a.351.351,0,0,1,0,.7Z" transform="translate(-16.454 -52.15)" fill="#1a3350"/>
            </g>
          </g>
        </g>
        <g id="그룹_9822" data-name="그룹 9822" transform="translate(8.526 1.705)">
          <g id="그룹_9818" data-name="그룹 9818">
            <g id="그룹_9817" data-name="그룹 9817">
              <g id="그룹_9816" data-name="그룹 9816">
                <path id="패스_10082" data-name="패스 10082" d="M37.016,52.855a.349.349,0,0,1-.137-.025.422.422,0,0,1-.112-.077.35.35,0,0,1-.105-.249.342.342,0,0,1,.105-.246.305.305,0,0,1,.112-.077.358.358,0,0,1,.383.077.344.344,0,0,1,.105.246.352.352,0,0,1-.105.249A.34.34,0,0,1,37.016,52.855Z" transform="translate(-36.662 -52.155)" fill="#1a3350"/>
              </g>
            </g>
          </g>
          <g id="그룹_9821" data-name="그룹 9821" transform="translate(2.371 0.002)">
            <g id="그룹_9820" data-name="그룹 9820">
              <g id="그룹_9819" data-name="그룹 9819">
                <path id="패스_10083" data-name="패스 10083" d="M43.763,52.858a.353.353,0,0,1-.249-.1l-.042-.053a.386.386,0,0,1-.053-.127.485.485,0,0,1-.007-.07.344.344,0,0,1,.028-.133.4.4,0,0,1,.074-.116.368.368,0,0,1,.5,0,.51.51,0,0,1,.077.116.361.361,0,0,1-.077.383A.354.354,0,0,1,43.763,52.858Z" transform="translate(-43.412 -52.16)" fill="#1a3350"/>
              </g>
            </g>
          </g>
        </g>
      </g>
      <g id="그룹_9826" data-name="그룹 9826" transform="translate(12.634)">
        <g id="그룹_9825" data-name="그룹 9825">
          <g id="그룹_9824" data-name="그룹 9824">
            <path id="패스_10084" data-name="패스 10084" d="M49.5,41.076h-.787a.351.351,0,0,1,0-.7H49.5a1.409,1.409,0,0,0,1.409-1.409V34.351a.351.351,0,0,1,.7,0v4.613A2.112,2.112,0,0,1,49.5,41.076Z" transform="translate(-48.361 -34)" fill="#1a3350"/>
          </g>
        </g>
      </g>
    </g>
  </g>
</svg>
