<svg xmlns="http://www.w3.org/2000/svg" width="18.472" height="17.058" viewBox="0 0 18.472 17.058">
  <g id="그룹_9839" data-name="그룹 9839" transform="translate(13739.1 16581.35)">
    <g id="그룹_9838" data-name="그룹 9838" transform="translate(-13739 -16581.25)">
      <g id="그룹_9837" data-name="그룹 9837" transform="translate(0 0)">
        <g id="그룹_9835" data-name="그룹 9835" transform="translate(3.907 6.587)">
          <g id="그룹_9834" data-name="그룹 9834" transform="translate(0)">
            <path id="사각형_5538" data-name="사각형 5538" d="M-1.5-1.5H6.408V6.408H-1.5Zm7.35.558H-.942V5.85H5.85Z" transform="translate(2.654 2.672)" fill="#1a3350" stroke="#1a3350" stroke-width="0.2"/>
            <g id="그룹_9830" data-name="그룹 9830" transform="translate(2.568)">
              <path id="선_802" data-name="선 802" d="M-.942,1.3H-1.5V0h.558Z" transform="translate(3.007 0)" fill="#1a3350" stroke="#1a3350" stroke-width="0.2"/>
              <path id="선_803" data-name="선 803" d="M-.942,1.3H-1.5V0h.558Z" transform="translate(4.514 0)" fill="#1a3350" stroke="#1a3350" stroke-width="0.2"/>
              <path id="선_804" data-name="선 804" d="M-.942,1.3H-1.5V0h.558Z" transform="translate(6.003 0)" fill="#1a3350" stroke="#1a3350" stroke-width="0.2"/>
              <path id="선_805" data-name="선 805" d="M-.942,1.3H-1.5V0h.558Z" transform="translate(1.5 0)" fill="#1a3350" stroke="#1a3350" stroke-width="0.2"/>
            </g>
            <g id="그룹_9831" data-name="그룹 9831" transform="translate(8.969 2.605)">
              <path id="선_806" data-name="선 806" d="M1.284-.942H0V-1.5H1.284Z" transform="translate(0 2.989)" fill="#1a3350" stroke="#1a3350" stroke-width="0.2"/>
              <path id="선_807" data-name="선 807" d="M1.284-.942H0V-1.5H1.284Z" transform="translate(0 4.496)" fill="#1a3350" stroke="#1a3350" stroke-width="0.2"/>
              <path id="선_808" data-name="선 808" d="M1.284-.942H0V-1.5H1.284Z" transform="translate(0 6.003)" fill="#1a3350" stroke="#1a3350" stroke-width="0.2"/>
              <path id="선_809" data-name="선 809" d="M1.284-.942H0V-1.5H1.284Z" transform="translate(0 1.5)" fill="#1a3350" stroke="#1a3350" stroke-width="0.2"/>
            </g>
            <g id="그룹_9832" data-name="그룹 9832" transform="translate(0 2.605)">
              <path id="선_810" data-name="선 810" d="M1.284-.942H0V-1.5H1.284Z" transform="translate(0 2.989)" fill="#1a3350" stroke="#1a3350" stroke-width="0.2"/>
              <path id="선_811" data-name="선 811" d="M1.284-.942H0V-1.5H1.284Z" transform="translate(0 4.496)" fill="#1a3350" stroke="#1a3350" stroke-width="0.2"/>
              <path id="선_812" data-name="선 812" d="M1.284-.942H0V-1.5H1.284Z" transform="translate(0 6.003)" fill="#1a3350" stroke="#1a3350" stroke-width="0.2"/>
              <path id="선_813" data-name="선 813" d="M1.284-.942H0V-1.5H1.284Z" transform="translate(0 1.5)" fill="#1a3350" stroke="#1a3350" stroke-width="0.2"/>
            </g>
            <g id="그룹_9833" data-name="그룹 9833" transform="translate(2.568 8.987)">
              <path id="선_814" data-name="선 814" d="M-.942,1.284H-1.5V0h.558Z" transform="translate(3.007 0)" fill="#1a3350" stroke="#1a3350" stroke-width="0.2"/>
              <path id="선_815" data-name="선 815" d="M-.942,1.284H-1.5V0h.558Z" transform="translate(4.514 0)" fill="#1a3350" stroke="#1a3350" stroke-width="0.2"/>
              <path id="선_816" data-name="선 816" d="M-.942,1.284H-1.5V0h.558Z" transform="translate(6.003 0)" fill="#1a3350" stroke="#1a3350" stroke-width="0.2"/>
              <path id="선_817" data-name="선 817" d="M-.942,1.284H-1.5V0h.558Z" transform="translate(1.5 0)" fill="#1a3350" stroke="#1a3350" stroke-width="0.2"/>
            </g>
            <path id="사각형_5539" data-name="사각형 5539" d="M-1.5-1.5H3.747V3.747H-1.5Zm4.689.558H-.942V3.189H3.189Z" transform="translate(3.975 3.993)" fill="#1a3350" stroke="#1a3350" stroke-width="0.2"/>
          </g>
        </g>
        <g id="그룹_9836" data-name="그룹 9836">
          <path id="패스_10085" data-name="패스 10085" d="M30.983,29.294h-.968v-.558h.968a1.844,1.844,0,0,0,1.73-1.9,3.233,3.233,0,0,0-3.07-3.368H28.121l.122-.367a3.715,3.715,0,0,0,.19-1.177,3.233,3.233,0,0,0-3.07-3.368,3.011,3.011,0,0,0-2.741,1.863l-.1.235-.242-.085a3.274,3.274,0,0,0-1.1-.189,3.025,3.025,0,0,0-3.07,2.924l0,.214-.208.053a3.31,3.31,0,0,0-2.339,3.246,1.822,1.822,0,0,0,1.73,1.9h1.023v.558H17.289A2.38,2.38,0,0,1,15,26.82a4.132,4.132,0,0,1,.208-1.3,4.021,4.021,0,0,1,.576-1.12,3.614,3.614,0,0,1,1.773-1.309,3.392,3.392,0,0,1,.288-1.148,3.5,3.5,0,0,1,.78-1.105,3.668,3.668,0,0,1,2.551-1.015,3.792,3.792,0,0,1,1.045.145,3.762,3.762,0,0,1,1.192-1.359A3.422,3.422,0,0,1,25.364,18a3.358,3.358,0,0,1,1.417.313,3.63,3.63,0,0,1,1.153.847,3.96,3.96,0,0,1,.774,1.247,4.163,4.163,0,0,1,.283,1.519,4.283,4.283,0,0,1-.115.986h.766a3.358,3.358,0,0,1,1.417.313,3.63,3.63,0,0,1,1.153.847,3.959,3.959,0,0,1,.774,1.247,4.163,4.163,0,0,1,.283,1.519,2.531,2.531,0,0,1-.667,1.724,2.307,2.307,0,0,1-.727.533A2.115,2.115,0,0,1,30.983,29.294Z" transform="translate(-15 -18)" fill="#1a3350" stroke="#1a3350" stroke-width="0.2"/>
        </g>
      </g>
    </g>
  </g>
</svg>
