<svg xmlns="http://www.w3.org/2000/svg" width="53.018" height="28.363" viewBox="0 0 53.018 28.363">
  <path id="Icon_awesome-memory" data-name="Icon awesome-memory" d="M51.768,7.726V5.259A2.441,2.441,0,0,0,49.18,3H2.588A2.441,2.441,0,0,0,0,5.259V7.726a3.446,3.446,0,0,1,2.588,3.182A3.446,3.446,0,0,1,0,14.089v6.986H51.768V14.089a3.446,3.446,0,0,1-2.588-3.182A3.446,3.446,0,0,1,51.768,7.726Zm-33.649,8.83H12.942V7.519h5.177Zm10.354,0H23.3V7.519h5.177Zm10.354,0H33.649V7.519h5.177ZM0,30.113H5.177V28.23A1.22,1.22,0,0,1,6.471,27.1a1.22,1.22,0,0,1,1.294,1.13v1.883H18.119V28.23a1.306,1.306,0,0,1,2.588,0v1.883H31.061V28.23a1.306,1.306,0,0,1,2.588,0v1.883H44V28.23a1.306,1.306,0,0,1,2.588,0v1.883h5.177V23.335H0Z" transform="translate(0.625 -2.375)" fill="none" stroke="#4b5966" stroke-width="1.25" opacity="0.4"/>
</svg>
