<svg xmlns="http://www.w3.org/2000/svg" width="19" height="19" viewBox="0 0 19 19">
  <path id="제외_5" data-name="제외 5" d="M-14522.376,2876h-14.249a2.378,2.378,0,0,1-2.375-2.375v-14.25a2.378,2.378,0,0,1,2.375-2.375h14.249a2.379,2.379,0,0,1,2.376,2.375v14.25A2.379,2.379,0,0,1-14522.376,2876Zm-13.816-4.967v2.159h7.557v-2.159Zm10.851-3.938h0l2.965,1.78v-9.5h-5.937v9.5l2.971-1.78Zm-10.851-.378v2.158h4.318v-2.158Zm0-4.316v2.158h4.318V2862.4Z" transform="translate(14539 -2856.999)" fill="#fff"/>
</svg>
