<svg xmlns="http://www.w3.org/2000/svg" width="23.77" height="23.769" viewBox="0 0 23.77 23.769">
  <g id="그룹_10595" data-name="그룹 10595" transform="translate(-584.25 -323.961)">
    <path id="패스_1332" data-name="패스 1332" d="M4.227,2H22.043A2.227,2.227,0,0,1,24.27,4.227V8.681a2.227,2.227,0,0,1-2.227,2.227H4.227A2.227,2.227,0,0,1,2,8.681V4.227A2.227,2.227,0,0,1,4.227,2Z" transform="translate(583 322.711)" fill="none" stroke="#4b5966" stroke-linecap="round" stroke-linejoin="round" stroke-width="1.5"/>
    <path id="패스_1333" data-name="패스 1333" d="M4.227,14H22.043a2.227,2.227,0,0,1,2.227,2.227v4.454a2.227,2.227,0,0,1-2.227,2.227H4.227A2.227,2.227,0,0,1,2,20.681V16.227A2.227,2.227,0,0,1,4.227,14Z" transform="translate(583 324.072)" fill="none" stroke="#4b5966" stroke-linecap="round" stroke-linejoin="round" stroke-width="1.5"/>
    <path id="패스_1334" data-name="패스 1334" d="M6,6H6" transform="translate(583.454 323.164)" fill="none" stroke="#4b5966" stroke-linecap="round" stroke-linejoin="round" stroke-width="1.5"/>
    <path id="패스_1335" data-name="패스 1335" d="M6,18H6" transform="translate(583.454 324.527)" fill="none" stroke="#4b5966" stroke-linecap="round" stroke-linejoin="round" stroke-width="1.5"/>
  </g>
</svg>
