<svg xmlns="http://www.w3.org/2000/svg" width="19.621" height="19.657" viewBox="0 0 19.621 19.657">
  <g id="그룹_670" data-name="그룹 670" transform="translate(0.75 0.75)">
    <path id="패스_1336" data-name="패스 1336" d="M5.647,4h9.884a1.647,1.647,0,0,1,1.647,1.647v9.884a1.647,1.647,0,0,1-1.647,1.647H5.647A1.647,1.647,0,0,1,4,15.532V5.647A1.647,1.647,0,0,1,5.647,4Z" transform="translate(-1.529 -1.508)" fill="none" stroke="#fff" stroke-linecap="round" stroke-linejoin="round" stroke-width="1.5"/>
    <path id="패스_1337" data-name="패스 1337" d="M9,9h4.942v4.942H9Z" transform="translate(-2.41 -2.392)" fill="none" stroke="#fff" stroke-linecap="round" stroke-linejoin="round" stroke-width="1.5"/>
    <path id="패스_1338" data-name="패스 1338" d="M9,1V3.471" transform="translate(-2.41 -1)" fill="none" stroke="#fff" stroke-linecap="round" stroke-linejoin="round" stroke-width="1.5"/>
    <path id="패스_1339" data-name="패스 1339" d="M15,1V3.471" transform="translate(-3.468 -1)" fill="none" stroke="#fff" stroke-linecap="round" stroke-linejoin="round" stroke-width="1.5"/>
    <path id="패스_1340" data-name="패스 1340" d="M9,20v2.471" transform="translate(-2.41 -4.314)" fill="none" stroke="#fff" stroke-linecap="round" stroke-linejoin="round" stroke-width="1.5"/>
    <path id="패스_1341" data-name="패스 1341" d="M15,20v2.471" transform="translate(-3.468 -4.314)" fill="none" stroke="#fff" stroke-linecap="round" stroke-linejoin="round" stroke-width="1.5"/>
    <path id="패스_1342" data-name="패스 1342" d="M20,9h2.471" transform="translate(-4.35 -2.399)" fill="none" stroke="#fff" stroke-linecap="round" stroke-linejoin="round" stroke-width="1.5"/>
    <path id="패스_1343" data-name="패스 1343" d="M20,14h2.471" transform="translate(-4.35 -3.271)" fill="none" stroke="#fff" stroke-linecap="round" stroke-linejoin="round" stroke-width="1.5"/>
    <path id="패스_1344" data-name="패스 1344" d="M1,9H3.471" transform="translate(-1 -2.399)" fill="none" stroke="#fff" stroke-linecap="round" stroke-linejoin="round" stroke-width="1.5"/>
    <path id="패스_1345" data-name="패스 1345" d="M1,14H3.471" transform="translate(-1 -3.271)" fill="none" stroke="#fff" stroke-linecap="round" stroke-linejoin="round" stroke-width="1.5"/>
  </g>
</svg>
