<svg xmlns="http://www.w3.org/2000/svg" width="49.741" height="50.677" viewBox="0 0 49.741 50.677"><defs><style>.a{opacity:0.5;}.b{fill:#1a3350;}</style></defs><g class="a" transform="translate(-772.438 -407.749)"><path class="b" d="M858.11,440.091a1.627,1.627,0,1,1-1.626-1.628A1.627,1.627,0,0,1,858.11,440.091Z" transform="translate(-41.065 -15.303)"/><path class="b" d="M845.937,440.091a1.626,1.626,0,1,1-1.626-1.628A1.627,1.627,0,0,1,845.937,440.091Z" transform="translate(-35.001 -15.303)"/><path class="b" d="M833.764,440.091a1.627,1.627,0,1,1-1.627-1.628A1.627,1.627,0,0,1,833.764,440.091Z" transform="translate(-28.935 -15.303)"/><path class="b" d="M818.8,417.8h-37.51a3.385,3.385,0,0,0-3.381,3.381V442.72a1.731,1.731,0,1,1-3.463,0V410.8a1.044,1.044,0,0,1,1.044-1.04h13.817a1.684,1.684,0,0,1,1.62,1.233l.548,1.986c.457,1.659,1.808,2.572,3.8,2.572h19.749a1,1,0,1,0,0-2.007H795.278c-1.389,0-1.729-.587-1.87-1.1l-.547-1.986a3.7,3.7,0,0,0-3.554-2.706H775.489a3.053,3.053,0,0,0-3.051,3.047V442.72a3.742,3.742,0,0,0,3.739,3.739H818.8a3.385,3.385,0,0,0,3.381-3.381V421.185A3.385,3.385,0,0,0,818.8,417.8Zm1.374,25.274a1.376,1.376,0,0,1-1.374,1.374H779.486a3.71,3.71,0,0,0,.428-1.732V421.185a1.376,1.376,0,0,1,1.374-1.374H818.8a1.376,1.376,0,0,1,1.374,1.374Z" transform="translate(0 0)"/><path class="b" d="M820.351,499.988a4.411,4.411,0,1,1,4.411-4.411A4.416,4.416,0,0,1,820.351,499.988Zm0-6.815a2.4,2.4,0,1,0,2.4,2.4A2.407,2.407,0,0,0,820.351,493.173Z" transform="translate(-21.675 -41.563)"/><path class="b" d="M794.265,498.961a4.382,4.382,0,0,1,.12-1H773.442a1,1,0,1,0,0,2.007h20.943A4.389,4.389,0,0,1,794.265,498.961Z" transform="translate(0 -44.947)"/><path class="b" d="M851.492,497.958H833.284a4.275,4.275,0,0,1,0,2.007h18.208a1,1,0,1,0,0-2.007Z" transform="translate(-30.317 -44.947)"/><path class="b" d="M823.734,488.043a4.408,4.408,0,0,1,1,.119V484.9h-2.007v3.264A4.414,4.414,0,0,1,823.734,488.043Z" transform="translate(-25.059 -38.44)"/></g></svg>