<svg xmlns="http://www.w3.org/2000/svg" width="21.25" height="17" viewBox="0 0 21.25 17">
  <path id="Icon_awesome-user-lock" data-name="Icon awesome-user-lock" d="M7.438,8.5a4.25,4.25,0,1,0-4.25-4.25A4.25,4.25,0,0,0,7.438,8.5Zm3.188,2.125a2.1,2.1,0,0,1,.269-1.013,4.544,4.544,0,0,0-.481-.05H9.858a5.78,5.78,0,0,1-4.841,0H4.463A4.463,4.463,0,0,0,0,14.024v1.382A1.594,1.594,0,0,0,1.594,17h9.327a2.11,2.11,0,0,1-.3-1.063Zm9.563-1.063H19.125V6.906a2.656,2.656,0,0,0-5.313,0V9.563H12.75a1.063,1.063,0,0,0-1.063,1.063v5.313A1.063,1.063,0,0,0,12.75,17h7.438a1.063,1.063,0,0,0,1.063-1.063V10.625A1.063,1.063,0,0,0,20.188,9.563Zm-3.719,4.781a1.063,1.063,0,1,1,1.063-1.063A1.063,1.063,0,0,1,16.469,14.344Zm1.063-4.781H15.407V6.906a1.063,1.063,0,1,1,2.125,0Z" fill="#fff"/>
</svg>
