<svg xmlns="http://www.w3.org/2000/svg" width="18.092" height="18.092" viewBox="0 0 18.092 18.092">
  <g id="Icon_feather-copy" data-name="Icon feather-copy" transform="translate(1 1)">
    <path id="패스_10859" data-name="패스 10859" d="M15.109,13.5H22.35a1.609,1.609,0,0,1,1.609,1.609V22.35A1.609,1.609,0,0,1,22.35,23.96H15.109A1.609,1.609,0,0,1,13.5,22.35V15.109A1.609,1.609,0,0,1,15.109,13.5Z" transform="translate(-7.868 -7.868)" fill="none" stroke="#4b5966" stroke-linecap="round" stroke-linejoin="round" stroke-width="2"/>
    <path id="패스_10860" data-name="패스 10860" d="M5.414,13.46h-.8A1.609,1.609,0,0,1,3,11.85V4.609A1.609,1.609,0,0,1,4.609,3H11.85A1.609,1.609,0,0,1,13.46,4.609v.8" transform="translate(-3 -3)" fill="none" stroke="#4b5966" stroke-linecap="round" stroke-linejoin="round" stroke-width="2"/>
  </g>
</svg>
