<svg xmlns="http://www.w3.org/2000/svg" width="19.724" height="18.564" viewBox="0 0 19.724 18.564">
  <path id="Icon_awesome-chart-pie" data-name="Icon awesome-chart-pie" d="M19.137,10.442h-8.6l5.73,5.73a.582.582,0,0,0,.8.025,8.684,8.684,0,0,0,2.652-5.107.581.581,0,0,0-.582-.647Zm-.574-2.35A8.723,8.723,0,0,0,10.471,0a.583.583,0,0,0-.609.587V8.7h8.113a.583.583,0,0,0,.587-.609ZM8.122,10.442v-8.6a.581.581,0,0,0-.647-.582,8.7,8.7,0,0,0-7.47,8.909,8.809,8.809,0,0,0,8.807,8.4,8.634,8.634,0,0,0,4.9-1.6.576.576,0,0,0,.057-.873Z" transform="translate(0 0)" fill="#fff"/>
</svg>
