<svg xmlns="http://www.w3.org/2000/svg" width="18.474" height="20.086" viewBox="0 0 18.474 20.086">
  <path id="icon" d="M17.61,20.086h0a8.224,8.224,0,0,1-3.237-1.081,13.661,13.661,0,0,1-2.835-2.016H4.842A4.837,4.837,0,0,1,0,12.168V4.82A4.837,4.837,0,0,1,4.842,0h8.79a4.836,4.836,0,0,1,4.842,4.82v7.348a4.819,4.819,0,0,1-2.916,4.422,4.157,4.157,0,0,1,.132.579c.125.7.267,1.5,1.918,2.915ZM13.8,7.441A1.419,1.419,0,1,0,15.223,8.86,1.424,1.424,0,0,0,13.8,7.441Zm-4.559,0A1.419,1.419,0,1,0,10.663,8.86,1.424,1.424,0,0,0,9.237,7.441Zm-4.56,0A1.419,1.419,0,1,0,6.1,8.86,1.424,1.424,0,0,0,4.677,7.441Z" fill="#fff"/>
</svg>
