<svg id="invoice" xmlns="http://www.w3.org/2000/svg" width="18.45" height="24.634" viewBox="0 0 18.45 24.634">
  <path id="제외_4" data-name="제외 4" d="M15.6,24.634a.717.717,0,0,1-.51-.211l-1.267-1.267h-.7l-1.267,1.267a.721.721,0,0,1-1.02,0L9.573,23.156h-.7L7.61,24.423a.722.722,0,0,1-1.021,0L5.322,23.156h-.7L3.358,24.423a.723.723,0,0,1-1.021,0L.212,22.3A.714.714,0,0,1,0,21.786V.722A.722.722,0,0,1,.722,0H17.728a.722.722,0,0,1,.722.722V21.786a.714.714,0,0,1-.211.51l-2.126,2.126A.718.718,0,0,1,15.6,24.634ZM5.36,17.006a.722.722,0,1,0,0,1.443h7.73a.722.722,0,0,0,0-1.443ZM7.679,11.6a.722.722,0,0,0,0,1.443H8.5v.825a.722.722,0,0,0,1.444,0v-.834A2.268,2.268,0,0,0,9.741,8.5H8.71a.824.824,0,1,1,0-1.649h2.061a.722.722,0,1,0,0-1.443H9.947V4.587a.722.722,0,0,0-1.444,0v.834A2.268,2.268,0,0,0,8.71,9.947H9.741a.824.824,0,0,1,0,1.649Z" fill="#fff"/>
</svg>
