<svg xmlns="http://www.w3.org/2000/svg" width="90.675" height="79.082" viewBox="0 0 90.675 79.082">
  <path id="패스_1598" data-name="패스 1598" d="M59.331,0,45.369,12.2,31.343,0,.088,27.322,0,27.4,39.281,61.6l3.7-3.228L7.4,27.392,31.353,6.459l10.318,8.976L28.091,27.3,28,27.382,55.315,51.668,31.349,72.617,8.959,53.05H1.565L31.278,79.019l.071.063,13.962-12.2L59.266,79.017l.069.063,31.34-27.4L51.458,17.392l-3.763,3.286L83.28,51.684,59.327,72.623,49.008,63.645,62.677,51.7,35.365,27.412,59.331,6.463,81.681,26l.029.029h7.1l.052-.008.109-.106Z" transform="translate(0)" fill="#fff"/>
</svg>
