<svg xmlns="http://www.w3.org/2000/svg" width="21.199" height="18.549" viewBox="0 0 21.199 18.549">
  <path id="Icon_awesome-server" data-name="Icon awesome-server" d="M19.874,7.55H1.325A1.325,1.325,0,0,1,0,6.225V3.575A1.325,1.325,0,0,1,1.325,2.25H19.874A1.325,1.325,0,0,1,21.2,3.575v2.65A1.325,1.325,0,0,1,19.874,7.55ZM17.887,3.906a.994.994,0,1,0,.994.994A.994.994,0,0,0,17.887,3.906Zm-2.65,0a.994.994,0,1,0,.994.994A.994.994,0,0,0,15.237,3.906Zm4.637,10.268H1.325A1.325,1.325,0,0,1,0,12.85V10.2A1.325,1.325,0,0,1,1.325,8.875H19.874A1.325,1.325,0,0,1,21.2,10.2v2.65A1.325,1.325,0,0,1,19.874,14.175Zm-1.987-3.644a.994.994,0,1,0,.994.994A.994.994,0,0,0,17.887,10.531Zm-2.65,0a.994.994,0,1,0,.994.994A.994.994,0,0,0,15.237,10.531ZM19.874,20.8H1.325A1.325,1.325,0,0,1,0,19.474v-2.65A1.325,1.325,0,0,1,1.325,15.5H19.874A1.325,1.325,0,0,1,21.2,16.824v2.65A1.325,1.325,0,0,1,19.874,20.8Zm-1.987-3.644a.994.994,0,1,0,.994.994A.994.994,0,0,0,17.887,17.156Zm-2.65,0a.994.994,0,1,0,.994.994A.994.994,0,0,0,15.237,17.156Z" transform="translate(0 -2.25)" fill="#fff"/>
</svg>
