<svg xmlns="http://www.w3.org/2000/svg" width="37.258" height="34.699" viewBox="0 0 37.258 34.699">
  <g id="그룹_8320" data-name="그룹 8320" transform="translate(0.625 0.625)" opacity="0.4">
    <path id="패스_1336" data-name="패스 1336" d="M7.2,4H26.38a3.119,3.119,0,0,1,3.2,3.035V25.244a3.119,3.119,0,0,1-3.2,3.035H7.2A3.119,3.119,0,0,1,4,25.244V7.035A3.119,3.119,0,0,1,7.2,4Z" transform="translate(1.215 0.591)" fill="none" stroke="#4b5966" stroke-linecap="round" stroke-linejoin="round" stroke-width="1.25"/>
    <path id="패스_1337" data-name="패스 1337" d="M9,9H19.43v9.1H9Z" transform="translate(3.789 3.173)" fill="none" stroke="#4b5966" stroke-linecap="round" stroke-linejoin="round" stroke-width="1.25"/>
    <path id="패스_1338" data-name="패스 1338" d="M9,1V5.552" transform="translate(4.094 -1)" fill="none" stroke="#4b5966" stroke-linecap="round" stroke-linejoin="round" stroke-width="1.25"/>
    <path id="패스_1339" data-name="패스 1339" d="M15,1V5.552" transform="translate(7.914 -1)" fill="none" stroke="#4b5966" stroke-linecap="round" stroke-linejoin="round" stroke-width="1.25"/>
    <path id="패스_1340" data-name="패스 1340" d="M9,20v4.552" transform="translate(4.094 8.897)" fill="none" stroke="#4b5966" stroke-linecap="round" stroke-linejoin="round" stroke-width="1.25"/>
    <path id="패스_1341" data-name="패스 1341" d="M15,20v4.552" transform="translate(7.914 8.897)" fill="none" stroke="#4b5966" stroke-linecap="round" stroke-linejoin="round" stroke-width="1.25"/>
    <path id="패스_1342" data-name="패스 1342" d="M20,9h5.215" transform="translate(10.793 3.161)" fill="none" stroke="#4b5966" stroke-linecap="round" stroke-linejoin="round" stroke-width="1.25"/>
    <path id="패스_1343" data-name="패스 1343" d="M20,14h5.215" transform="translate(10.793 5.765)" fill="none" stroke="#4b5966" stroke-linecap="round" stroke-linejoin="round" stroke-width="1.25"/>
    <path id="패스_1344" data-name="패스 1344" d="M1,9H6.215" transform="translate(-1 3.161)" fill="none" stroke="#4b5966" stroke-linecap="round" stroke-linejoin="round" stroke-width="1.25"/>
    <path id="패스_1345" data-name="패스 1345" d="M1,14H6.215" transform="translate(-1 5.765)" fill="none" stroke="#4b5966" stroke-linecap="round" stroke-linejoin="round" stroke-width="1.25"/>
  </g>
</svg>
