<svg xmlns="http://www.w3.org/2000/svg" width="22.964" height="14.378" viewBox="0 0 22.964 14.378">
  <path id="Icon_awesome-memory" data-name="Icon awesome-memory" d="M21.464,5.245V4.073A1.073,1.073,0,0,0,20.391,3H1.073A1.073,1.073,0,0,0,0,4.073V5.245A1.6,1.6,0,0,1,1.073,6.756,1.6,1.6,0,0,1,0,8.267v3.318H21.464V8.267a1.6,1.6,0,0,1,0-3.022ZM7.512,9.439H5.366V5.146H7.512Zm4.293,0H9.659V5.146h2.146Zm4.293,0H13.952V5.146H16.1ZM0,15.878H2.146v-.894a.537.537,0,1,1,1.073,0v.894H7.512v-.894a.537.537,0,1,1,1.073,0v.894h4.293v-.894a.537.537,0,0,1,1.073,0v.894h4.293v-.894a.537.537,0,1,1,1.073,0v.894h2.146v-3.22H0Z" transform="translate(0.75 -2.25)" fill="none" stroke="#fff" stroke-width="1.5"/>
</svg>
