<svg width="47" height="47" xmlns="http://www.w3.org/2000/svg" xmlns:xlink="http://www.w3.org/1999/xlink" overflow="hidden"><defs><clipPath id="clip0"><rect x="308" y="370" width="47" height="47"/></clipPath></defs><g clip-path="url(#clip0)" transform="translate(-308 -370)"><path d="M351.546 376.425 311.454 376.425C309.549 376.425 308 377.975 308 379.88L308 404.116C308 406.021 309.549 407.57 311.454 407.57L322.817 407.57 321.517 408.97 319.567 408.97C319.124 408.97 318.765 409.329 318.765 409.772 318.765 410.215 319.124 410.575 319.567 410.575L343.433 410.575C343.876 410.575 344.235 410.215 344.235 409.772 344.235 409.329 343.876 408.97 343.433 408.97L341.483 408.97 340.183 407.57 351.546 407.57C353.45 407.57 355 406.021 355 404.116L355 379.88C355 377.975 353.45 376.425 351.546 376.425ZM309.604 403.207 309.604 380.789 353.396 380.789 353.396 403.207 309.604 403.207ZM311.454 378.03 351.546 378.03C352.32 378.03 352.984 378.508 353.259 379.185L309.741 379.185C310.016 378.508 310.68 378.03 311.454 378.03ZM339.294 408.97 323.706 408.97 325.007 407.57 337.993 407.57 339.294 408.97ZM351.546 405.966 311.454 405.966C310.68 405.966 310.016 405.487 309.741 404.811L353.259 404.811C352.984 405.487 352.32 405.966 351.546 405.966Z"/><path d="M348.016 387.019C347.046 386.05 345.469 386.049 344.499 387.019 344.03 387.488 343.771 388.113 343.771 388.777 343.771 389.134 343.848 389.479 343.99 389.795L337.587 394.844C336.859 394.457 335.979 394.457 335.251 394.844L328.847 389.794C329.256 388.88 329.088 387.768 328.339 387.019 327.37 386.05 325.792 386.049 324.823 387.019 324.073 387.768 323.906 388.88 324.315 389.794L317.911 394.844C316.971 394.344 315.776 394.489 314.984 395.28 314.015 396.25 314.015 397.827 314.984 398.796 315.469 399.281 316.106 399.523 316.742 399.523 317.379 399.523 318.016 399.281 318.501 398.796 319.25 398.047 319.417 396.935 319.008 396.021L325.413 390.972C325.776 391.165 326.178 391.262 326.581 391.262 326.983 391.262 327.385 391.165 327.749 390.972L334.153 396.021C333.744 396.935 333.912 398.047 334.661 398.796 335.146 399.281 335.782 399.523 336.419 399.523 337.056 399.523 337.692 399.281 338.177 398.796 338.177 398.796 338.177 398.796 338.177 398.796 338.927 398.047 339.094 396.935 338.685 396.021L345.089 390.972C345.453 391.165 345.855 391.262 346.257 391.262 346.894 391.262 347.531 391.02 348.016 390.535 348.985 389.566 348.985 387.988 348.016 387.019ZM317.366 397.662C317.022 398.006 316.463 398.006 316.119 397.662 315.775 397.318 315.775 396.758 316.119 396.414 316.291 396.242 316.517 396.156 316.742 396.156 316.968 396.156 317.194 396.242 317.366 396.414 317.71 396.758 317.71 397.318 317.366 397.662ZM325.957 389.401C325.613 389.057 325.613 388.497 325.957 388.153 326.129 387.981 326.355 387.895 326.581 387.895 326.807 387.895 327.033 387.981 327.204 388.153 327.549 388.497 327.549 389.057 327.204 389.401 326.861 389.745 326.301 389.745 325.957 389.401ZM337.043 397.662C336.699 398.006 336.139 398.006 335.795 397.662 335.451 397.318 335.451 396.758 335.795 396.414 335.967 396.242 336.193 396.156 336.419 396.156 336.645 396.156 336.871 396.242 337.043 396.414 337.387 396.758 337.387 397.318 337.043 397.662ZM346.881 389.401C346.537 389.745 345.978 389.745 345.634 389.401 345.467 389.234 345.375 389.013 345.375 388.777 345.375 388.541 345.467 388.32 345.634 388.153 345.806 387.981 346.031 387.895 346.257 387.895 346.483 387.895 346.709 387.981 346.881 388.153 347.225 388.497 347.225 389.057 346.881 389.401Z"/></g></svg>
