<svg xmlns="http://www.w3.org/2000/svg" width="46.329" height="48.77" viewBox="0 0 46.329 48.77"><defs><style>.a{opacity:0.5;}.b{fill:none;stroke:#1a3350;stroke-linecap:round;stroke-linejoin:round;stroke-width:2px;}</style></defs><g class="a" transform="translate(-0.5 2.351)"><path class="b" d="M37.873,36.14V31.593A9.093,9.093,0,0,0,28.779,22.5H10.593A9.093,9.093,0,0,0,1.5,31.593V36.14" transform="translate(0 9.279)"/><path class="b" d="M25.686,13.593A9.093,9.093,0,1,1,16.593,4.5,9.093,9.093,0,0,1,25.686,13.593Z" transform="translate(3.093 0)"/><path class="b" d="M36.82,36.039V31.493A9.093,9.093,0,0,0,30,22.7" transform="translate(9.009 4.38)"/><path class="b" d="M24,4.695a9.093,9.093,0,0,1,0,17.618" transform="matrix(0.921, -0.391, 0.391, 0.921, 2.819, 6.887)"/></g></svg>