<svg xmlns="http://www.w3.org/2000/svg" width="53.516" height="42.838" viewBox="0 0 53.516 42.838"><defs><style>.a{opacity:0.5;}.b{fill:#1a3350;}</style></defs><g class="a" transform="translate(-547.897 -416.542)"><rect class="b" width="49.419" height="2.053" transform="translate(549.985 426.132)"/><path class="b" d="M597.8,416.542H551.478a3.582,3.582,0,0,0-3.581,3.6V455.8a3.778,3.778,0,0,0,3.792,3.575h46.346a3.908,3.908,0,0,0,2.536-1.36,3.412,3.412,0,0,0,.842-2.548V420.131A3.617,3.617,0,0,0,597.8,416.542Zm1.306,40.034c-.289.292-.675.748-1.086.75H551.689a1.727,1.727,0,0,1-1.738-1.532V420.132a1.527,1.527,0,0,1,1.527-1.536H597.8a1.558,1.558,0,0,1,1.555,1.546v35.341A1.4,1.4,0,0,1,599.11,456.576Z"/><path class="b" d="M587.829,426.1a1.665,1.665,0,1,1-1.664-1.665A1.665,1.665,0,0,1,587.829,426.1Z" transform="translate(-17.805 -3.838)"/><path class="b" d="M575.656,426.1a1.665,1.665,0,1,1-1.665-1.665A1.665,1.665,0,0,1,575.656,426.1Z" transform="translate(-11.884 -3.838)"/><path class="b" d="M563.483,426.1a1.665,1.665,0,1,1-1.665-1.665A1.666,1.666,0,0,1,563.483,426.1Z" transform="translate(-5.962 -3.838)"/></g></svg>