<svg xmlns="http://www.w3.org/2000/svg" width="21" height="17.502" viewBox="0 0 21 17.502">
  <g id="Icon_feather-users" data-name="Icon feather-users" transform="translate(0.75 0.797)">
    <path id="패스_1587" data-name="패스 1587" d="M15.682,27.818V26.045A3.545,3.545,0,0,0,12.136,22.5H5.045A3.545,3.545,0,0,0,1.5,26.045v1.773" transform="translate(-1.5 -11.864)" fill="none" stroke="#4b5966" stroke-linecap="round" stroke-linejoin="round" stroke-width="1.5"/>
    <path id="패스_1588" data-name="패스 1588" d="M14.591,8.045A3.545,3.545,0,1,1,11.045,4.5,3.545,3.545,0,0,1,14.591,8.045Z" transform="translate(-3.955 -4.5)" fill="none" stroke="#4b5966" stroke-linecap="round" stroke-linejoin="round" stroke-width="1.5"/>
    <path id="패스_1589" data-name="패스 1589" d="M32.659,27.9V26.125A3.545,3.545,0,0,0,30,22.7" transform="translate(-13.159 -11.943)" fill="none" stroke="#4b5966" stroke-linecap="round" stroke-linejoin="round" stroke-width="1.5"/>
    <path id="패스_1590" data-name="패스 1590" d="M24,4.7a3.545,3.545,0,0,1,0,6.869" transform="translate(-10.705 -4.58)" fill="none" stroke="#4b5966" stroke-linecap="round" stroke-linejoin="round" stroke-width="1.5"/>
  </g>
</svg>
