<svg xmlns="http://www.w3.org/2000/svg" width="25.845" height="35.34" viewBox="0 0 25.845 35.34">
  <g id="그룹_1269" data-name="그룹 1269" transform="translate(-335.842 -601.007)">
    <path id="패스_1768" data-name="패스 1768" d="M350.083,639.148a5.478,5.478,0,0,1-1.041-.359V637.67a4.38,4.38,0,0,0,2.029.612,1.235,1.235,0,0,0,.721-.192.623.623,0,0,0,.275-.542.6.6,0,0,0-.153-.416,1.215,1.215,0,0,0-.38-.28q-.227-.109-.647-.267a7.5,7.5,0,0,1-.927-.4,1.791,1.791,0,0,1-.612-.547,1.535,1.535,0,0,1-.254-.914,1.555,1.555,0,0,1,.568-1.281,2.409,2.409,0,0,1,1.556-.459,4.123,4.123,0,0,1,.909.1,3.46,3.46,0,0,1,.822.293v1.093a3.514,3.514,0,0,0-1.705-.49,1.334,1.334,0,0,0-.713.162.512.512,0,0,0-.258.459.528.528,0,0,0,.267.467,4.352,4.352,0,0,0,.826.372,8.1,8.1,0,0,1,.962.419,1.925,1.925,0,0,1,.651.582,1.726,1.726,0,0,1,.293.984,1.683,1.683,0,0,1-.586,1.36,2.35,2.35,0,0,1-1.565.494A4.5,4.5,0,0,1,350.083,639.148Z" transform="translate(-8.391 -20.326)" fill="#8b98a6"/>
    <path id="패스_1769" data-name="패스 1769" d="M365.443,639.148a5.478,5.478,0,0,1-1.041-.359V637.67a4.38,4.38,0,0,0,2.029.612,1.235,1.235,0,0,0,.721-.192.623.623,0,0,0,.275-.542.6.6,0,0,0-.153-.416,1.216,1.216,0,0,0-.38-.28q-.227-.109-.647-.267a7.5,7.5,0,0,1-.927-.4,1.791,1.791,0,0,1-.612-.547,1.535,1.535,0,0,1-.254-.914,1.554,1.554,0,0,1,.568-1.281,2.409,2.409,0,0,1,1.556-.459,4.122,4.122,0,0,1,.909.1,3.46,3.46,0,0,1,.822.293v1.093a3.514,3.514,0,0,0-1.705-.49,1.334,1.334,0,0,0-.713.162.512.512,0,0,0-.258.459.528.528,0,0,0,.267.467,4.352,4.352,0,0,0,.826.372,8.1,8.1,0,0,1,.962.419,1.925,1.925,0,0,1,.651.582,1.726,1.726,0,0,1,.293.984,1.683,1.683,0,0,1-.586,1.36,2.35,2.35,0,0,1-1.565.494A4.5,4.5,0,0,1,365.443,639.148Z" transform="translate(-18.155 -20.326)" fill="#8b98a6"/>
    <path id="패스_1770" data-name="패스 1770" d="M384.146,633.643a2.462,2.462,0,0,1,1.023,1.058,3.9,3.9,0,0,1,0,3.227,2.457,2.457,0,0,1-1.023,1.058,3.278,3.278,0,0,1-1.609.372H380.29v-6.086h2.247A3.281,3.281,0,0,1,384.146,633.643Zm-.31,4.176a2.651,2.651,0,0,0,0-3.008,1.665,1.665,0,0,0-1.3-.516h-1.093v4.04h1.093A1.666,1.666,0,0,0,383.836,637.819Z" transform="translate(-28.254 -20.51)" fill="#8b98a6"/>
    <path id="패스_1771" data-name="패스 1771" d="M348.4,612.561a1.181,1.181,0,1,1-1.182-1.182A1.182,1.182,0,0,1,348.4,612.561Z" transform="translate(-6.478 -6.593)" fill="#8b98a6"/>
    <path id="패스_1772" data-name="패스 1772" d="M392.665,612.561a1.181,1.181,0,1,1-1.182-1.182A1.182,1.182,0,0,1,392.665,612.561Z" transform="translate(-34.619 -6.593)" fill="#8b98a6"/>
    <path id="패스_1773" data-name="패스 1773" d="M385.994,683.279h-4.172a.729.729,0,0,0,0,1.457h4.172a.729.729,0,0,0,0-1.457Z" transform="translate(-28.765 -52.298)" fill="#8b98a6"/>
    <path id="패스_1774" data-name="패스 1774" d="M359.137,601.007H338.392a2.553,2.553,0,0,0-2.55,2.55v29.774a3.019,3.019,0,0,0,3.015,3.015h19.815a3.019,3.019,0,0,0,3.015-3.015V603.557A2.553,2.553,0,0,0,359.137,601.007Zm-20.745,1.457h20.745a1.094,1.094,0,0,1,1.093,1.093v23.954a2.994,2.994,0,0,0-1.558-.438H338.857a2.993,2.993,0,0,0-1.558.438V603.557A1.094,1.094,0,0,1,338.392,602.464Zm21.838,30.867a1.56,1.56,0,0,1-1.558,1.558H338.857a1.56,1.56,0,0,1-1.558-1.558v-3.244a1.559,1.559,0,0,1,1.558-1.557h19.815a1.559,1.559,0,0,1,1.558,1.557v3.244Z" transform="translate(0)" fill="#8b98a6"/>
  </g>
</svg>
