<svg id="그룹_9765" data-name="그룹 9765" xmlns="http://www.w3.org/2000/svg" width="16.957" height="16.858" viewBox="0 0 16.957 16.858">
  <g id="그룹_9751" data-name="그룹 9751">
    <path id="패스_10052" data-name="패스 10052" d="M17.9,7.44H3.06A1.061,1.061,0,0,1,2,6.38V3.2a1.061,1.061,0,0,1,1.06-1.06H17.9a1.061,1.061,0,0,1,1.06,1.06V6.38A1.061,1.061,0,0,1,17.9,7.44ZM3.06,2.847a.354.354,0,0,0-.353.353V6.38a.354.354,0,0,0,.353.353H17.9a.354.354,0,0,0,.353-.353V3.2a.354.354,0,0,0-.353-.353Z" transform="translate(-2 -2.141)" fill="#1a3350"/>
  </g>
  <g id="그룹_9752" data-name="그룹 9752" transform="translate(1.766 2.296)">
    <path id="패스_10053" data-name="패스 10053" d="M8.06,9.347H7.353a.353.353,0,1,1,0-.707H8.06a.353.353,0,1,1,0,.707Z" transform="translate(-7 -8.641)" fill="#1a3350"/>
  </g>
  <g id="그룹_9753" data-name="그룹 9753" transform="translate(4.239 2.296)">
    <path id="패스_10054" data-name="패스 10054" d="M15.06,9.347h-.707a.353.353,0,1,1,0-.707h.707a.353.353,0,1,1,0,.707Z" transform="translate(-14 -8.641)" fill="#1a3350"/>
  </g>
  <g id="그룹_9754" data-name="그룹 9754" transform="translate(12.718 1.413)">
    <path id="패스_10055" data-name="패스 10055" d="M39.236,8.613a1.236,1.236,0,1,1,1.236-1.236A1.238,1.238,0,0,1,39.236,8.613Zm0-1.766a.53.53,0,1,0,.53.53A.53.53,0,0,0,39.236,6.847Z" transform="translate(-38 -6.141)" fill="#1a3350"/>
  </g>
  <g id="그룹_9755" data-name="그룹 9755" transform="translate(0 6.712)">
    <path id="패스_10056" data-name="패스 10056" d="M17.9,26.44H3.06A1.061,1.061,0,0,1,2,25.38V22.2a1.061,1.061,0,0,1,1.06-1.06H17.9a1.061,1.061,0,0,1,1.06,1.06V25.38A1.061,1.061,0,0,1,17.9,26.44ZM3.06,21.847a.354.354,0,0,0-.353.353V25.38a.354.354,0,0,0,.353.353H17.9a.354.354,0,0,0,.353-.353V22.2a.354.354,0,0,0-.353-.353Z" transform="translate(-2 -21.141)" fill="#1a3350"/>
  </g>
  <g id="그룹_9756" data-name="그룹 9756" transform="translate(1.766 9.008)">
    <path id="패스_10057" data-name="패스 10057" d="M8.06,28.347H7.353a.353.353,0,1,1,0-.707H8.06a.353.353,0,1,1,0,.707Z" transform="translate(-7 -27.641)" fill="#1a3350"/>
  </g>
  <g id="그룹_9757" data-name="그룹 9757" transform="translate(4.239 9.008)">
    <path id="패스_10058" data-name="패스 10058" d="M15.06,28.347h-.707a.353.353,0,1,1,0-.707h.707a.353.353,0,1,1,0,.707Z" transform="translate(-14 -27.641)" fill="#1a3350"/>
  </g>
  <g id="그룹_9758" data-name="그룹 9758" transform="translate(12.718 8.125)">
    <path id="패스_10059" data-name="패스 10059" d="M39.236,27.613a1.236,1.236,0,1,1,1.236-1.236A1.238,1.238,0,0,1,39.236,27.613Zm0-1.766a.53.53,0,1,0,.53.53A.53.53,0,0,0,39.236,25.847Z" transform="translate(-38 -25.141)" fill="#1a3350"/>
  </g>
  <g id="그룹_9759" data-name="그룹 9759" transform="translate(13.424 4.593)">
    <path id="패스_10060" data-name="패스 10060" d="M40.353,17.967A.353.353,0,0,1,40,17.613v-2.12a.353.353,0,0,1,.707,0v2.12A.353.353,0,0,1,40.353,17.967Z" transform="translate(-40 -15.141)" fill="#1a3350"/>
  </g>
  <g id="그룹_9760" data-name="그룹 9760" transform="translate(2.826 4.593)">
    <path id="패스_10061" data-name="패스 10061" d="M10.353,17.967A.353.353,0,0,1,10,17.613v-2.12a.353.353,0,1,1,.707,0v2.12A.353.353,0,0,1,10.353,17.967Z" transform="translate(-10 -15.141)" fill="#1a3350"/>
  </g>
  <g id="그룹_9761" data-name="그룹 9761" transform="translate(8.125 11.305)">
    <path id="패스_10062" data-name="패스 10062" d="M25.353,37.574A.353.353,0,0,1,25,37.22V34.494a.353.353,0,0,1,.707,0V37.22A.353.353,0,0,1,25.353,37.574Z" transform="translate(-25 -34.141)" fill="#1a3350"/>
  </g>
  <g id="그룹_9762" data-name="그룹 9762" transform="translate(7.067 14.032)">
    <path id="패스_10063" data-name="패스 10063" d="M24.477,44.686h-2.12A.353.353,0,0,1,22,44.332v-2.12a.353.353,0,0,1,.353-.353h2.12a.353.353,0,0,1,.353.353v2.12A.353.353,0,0,1,24.477,44.686Zm-1.766-.707h1.413V42.566H22.711Z" transform="translate(-22.004 -41.859)" fill="#1a3350"/>
  </g>
  <g id="그룹_9763" data-name="그룹 9763" transform="translate(9.187 15.091)">
    <path id="패스_10064" data-name="패스 10064" d="M33.342,45.566H28.358a.353.353,0,1,1,0-.707h4.985a.353.353,0,1,1,0,.707Z" transform="translate(-28.004 -44.859)" fill="#1a3350"/>
  </g>
  <g id="그룹_9764" data-name="그룹 9764" transform="translate(2.079 15.091)">
    <path id="패스_10065" data-name="패스 10065" d="M13.226,45.566H8.238a.353.353,0,1,1,0-.707h4.988a.353.353,0,0,1,0,.707Z" transform="translate(-7.885 -44.859)" fill="#1a3350"/>
  </g>
</svg>
