<svg xmlns="http://www.w3.org/2000/svg" width="47.348" height="50.677" viewBox="0 0 47.348 50.677"><defs><style>.a{opacity:0.5;}.b{fill:#1a3350;}</style></defs><g class="a" transform="translate(-775.006 -220.411)"><g transform="translate(808.628 226.114)"><path class="b" d="M848.178,233.749h-5.415a1.007,1.007,0,0,1,0-2.015h5.415a1.007,1.007,0,0,1,0,2.015Z" transform="translate(-841.756 -231.734)"/></g><g transform="translate(808.628 241.887)"><path class="b" d="M848.178,265.063h-5.415a1.007,1.007,0,0,1,0-2.015h5.415a1.007,1.007,0,0,1,0,2.015Z" transform="translate(-841.756 -263.048)"/></g><g transform="translate(808.628 257.661)"><path class="b" d="M848.178,296.378h-5.415a1.007,1.007,0,0,1,0-2.015h5.415a1.007,1.007,0,0,1,0,2.015Z" transform="translate(-841.756 -294.363)"/></g><g transform="translate(779.665 224.477)"><path class="b" d="M785.263,233.9a1.007,1.007,0,0,1-1.007-1.007v-3.4a1.007,1.007,0,0,1,2.015,0v3.4A1.008,1.008,0,0,1,785.263,233.9Z" transform="translate(-784.256 -228.484)"/></g><g transform="translate(783.947 224.477)"><path class="b" d="M793.763,233.9a1.007,1.007,0,0,1-1.007-1.007v-3.4a1.007,1.007,0,0,1,2.015,0v3.4A1.008,1.008,0,0,1,793.763,233.9Z" transform="translate(-792.756 -228.484)"/></g><g transform="translate(788.228 224.477)"><path class="b" d="M802.263,233.9a1.007,1.007,0,0,1-1.007-1.007v-3.4a1.007,1.007,0,0,1,2.015,0v3.4A1.008,1.008,0,0,1,802.263,233.9Z" transform="translate(-801.256 -228.484)"/></g><g transform="translate(792.51 224.477)"><path class="b" d="M810.763,233.9a1.007,1.007,0,0,1-1.007-1.007v-3.4a1.007,1.007,0,0,1,2.015,0v3.4A1.008,1.008,0,0,1,810.763,233.9Z" transform="translate(-809.756 -228.484)"/></g><g transform="translate(779.665 240.187)"><path class="b" d="M785.263,265.088a1.007,1.007,0,0,1-1.007-1.007v-3.4a1.007,1.007,0,1,1,2.015,0v3.4A1.007,1.007,0,0,1,785.263,265.088Z" transform="translate(-784.256 -259.673)"/></g><g transform="translate(783.947 240.187)"><path class="b" d="M793.763,265.088a1.007,1.007,0,0,1-1.007-1.007v-3.4a1.007,1.007,0,1,1,2.015,0v3.4A1.007,1.007,0,0,1,793.763,265.088Z" transform="translate(-792.756 -259.673)"/></g><g transform="translate(788.228 240.187)"><path class="b" d="M802.263,265.088a1.007,1.007,0,0,1-1.007-1.007v-3.4a1.007,1.007,0,1,1,2.015,0v3.4A1.007,1.007,0,0,1,802.263,265.088Z" transform="translate(-801.256 -259.673)"/></g><g transform="translate(792.51 240.187)"><path class="b" d="M810.763,265.088a1.007,1.007,0,0,1-1.007-1.007v-3.4a1.007,1.007,0,1,1,2.015,0v3.4A1.008,1.008,0,0,1,810.763,265.088Z" transform="translate(-809.756 -259.673)"/></g><g transform="translate(779.665 255.898)"><path class="b" d="M785.263,296.278a1.007,1.007,0,0,1-1.007-1.007v-3.4a1.007,1.007,0,0,1,2.015,0v3.4A1.008,1.008,0,0,1,785.263,296.278Z" transform="translate(-784.256 -290.863)"/></g><g transform="translate(783.947 255.898)"><path class="b" d="M793.763,296.278a1.007,1.007,0,0,1-1.007-1.007v-3.4a1.007,1.007,0,0,1,2.015,0v3.4A1.008,1.008,0,0,1,793.763,296.278Z" transform="translate(-792.756 -290.863)"/></g><g transform="translate(788.228 255.898)"><path class="b" d="M802.263,296.278a1.007,1.007,0,0,1-1.007-1.007v-3.4a1.007,1.007,0,0,1,2.015,0v3.4A1.008,1.008,0,0,1,802.263,296.278Z" transform="translate(-801.256 -290.863)"/></g><g transform="translate(792.51 255.898)"><path class="b" d="M810.763,296.278a1.007,1.007,0,0,1-1.007-1.007v-3.4a1.007,1.007,0,0,1,2.015,0v3.4A1.008,1.008,0,0,1,810.763,296.278Z" transform="translate(-809.756 -290.863)"/></g><rect class="b" width="2.015" height="2.352" transform="translate(815.05 233.832)"/><rect class="b" width="2.015" height="2.352" transform="translate(780.295 233.832)"/><rect class="b" width="2.015" height="2.352" transform="translate(780.295 249.605)"/><rect class="b" width="2.015" height="2.352" transform="translate(815.05 249.605)"/><g transform="translate(775.006 220.411)"><path class="b" d="M821.346,233.833H776.013a1.007,1.007,0,0,1-1.007-1.007V221.418a1.007,1.007,0,0,1,1.007-1.007h45.333a1.008,1.008,0,0,1,1.007,1.007v11.407A1.008,1.008,0,0,1,821.346,233.833Zm-44.326-2.015h43.318v-9.392H777.021Z" transform="translate(-775.006 -220.411)"/></g><g transform="translate(775.006 251.957)"><path class="b" d="M821.346,296.461H776.013a1.007,1.007,0,0,1-1.007-1.007V284.047a1.007,1.007,0,0,1,1.007-1.007h45.333a1.007,1.007,0,0,1,1.007,1.007v11.406A1.007,1.007,0,0,1,821.346,296.461Zm-44.326-2.015h43.318v-9.392H777.021Z" transform="translate(-775.006 -283.04)"/></g><g transform="translate(775.006 236.184)"><path class="b" d="M821.346,265.147H776.013a1.007,1.007,0,0,1-1.007-1.007V252.733a1.007,1.007,0,0,1,1.007-1.007h45.333a1.007,1.007,0,0,1,1.007,1.007V264.14A1.007,1.007,0,0,1,821.346,265.147Zm-44.326-2.015h43.318v-9.391H777.021Z" transform="translate(-775.006 -251.726)"/></g><path class="b" d="M820.261,309.685v3.695h-32.74v-3.695h-2.015v4.7a1.007,1.007,0,0,0,1.007,1.007h34.755a1.008,1.008,0,0,0,1.007-1.007v-4.7Z" transform="translate(-5.211 -44.307)"/></g></svg>