<svg xmlns="http://www.w3.org/2000/svg" width="21.599" height="21.6" viewBox="0 0 21.599 21.6">
  <path id="repairing-service" d="M21.533,9.6a.7.7,0,0,0-.694-.532,2.385,2.385,0,0,1-1.632-4.15.6.6,0,0,0,.066-.815,10.692,10.692,0,0,0-1.711-1.728.6.6,0,0,0-.821.066,2.489,2.489,0,0,1-2.694.605A2.4,2.4,0,0,1,12.588.7a.6.6,0,0,0-.53-.631A10.778,10.778,0,0,0,9.628.065a.6.6,0,0,0-.535.618,2.4,2.4,0,0,1-1.479,2.3,2.5,2.5,0,0,1-2.674-.609.6.6,0,0,0-.815-.068A10.736,10.736,0,0,0,2.379,4.037a.6.6,0,0,0,.064.821,2.393,2.393,0,0,1,.6,2.695A2.5,2.5,0,0,1,.7,9.012a.588.588,0,0,0-.624.53A10.826,10.826,0,0,0,.069,12a.715.715,0,0,0,.708.531A2.369,2.369,0,0,1,3,14.01a2.4,2.4,0,0,1-.6,2.671.6.6,0,0,0-.065.814,10.73,10.73,0,0,0,1.708,1.729.6.6,0,0,0,.822-.065,2.485,2.485,0,0,1,2.692-.605A2.4,2.4,0,0,1,9.014,20.9a.6.6,0,0,0,.53.631,10.754,10.754,0,0,0,2.43.007.6.6,0,0,0,.534-.618,2.4,2.4,0,0,1,1.478-2.3,2.493,2.493,0,0,1,2.675.608.6.6,0,0,0,.815.068,10.75,10.75,0,0,0,1.747-1.727.6.6,0,0,0-.064-.821,2.393,2.393,0,0,1-.605-2.694,2.417,2.417,0,0,1,2.209-1.464l.134,0a.6.6,0,0,0,.632-.53A10.779,10.779,0,0,0,21.533,9.6ZM10.8,17.025a6.226,6.226,0,1,1,5.346-3.034L13.42,11.265A3.819,3.819,0,0,0,8.9,6.092a.432.432,0,0,0-.3.3.422.422,0,0,0,.12.413s1.346,1.356,1.8,1.807a.279.279,0,0,1,.04.2l0,.03a8.608,8.608,0,0,1-.205,1.318l-.029.028-.03.031a8.485,8.485,0,0,1-1.338.208v0l-.023.006H8.907a.288.288,0,0,1-.207-.088C8.231,9.874,6.938,8.59,6.938,8.59a.44.44,0,0,0-.314-.14.427.427,0,0,0-.4.325A3.82,3.82,0,0,0,11.4,13.29l2.756,2.756A6.2,6.2,0,0,1,10.8,17.025Z" transform="translate(-0.002 0.001)" fill="#fff"/>
</svg>
