<svg xmlns="http://www.w3.org/2000/svg" width="26.63" height="22.33" viewBox="0 0 26.63 22.33">
  <g id="그룹_10754" data-name="그룹 10754" transform="translate(0.214 0.332)">
    <g id="다각형_1" data-name="다각형 1" transform="translate(0.102 -0.002)" fill="none" stroke-linecap="round" stroke-linejoin="round">
      <path d="M11.323,2.58a2,2,0,0,1,3.354,0l9.315,14.33A2,2,0,0,1,22.315,20H3.685a2,2,0,0,1-1.677-3.09Z" stroke="none"/>
      <path d="M 13 1.669801712036133 C 12.35872745513916 1.669801712036133 11.71745491027832 1.973140716552734 11.32310962677002 2.57982063293457 L 2.008480072021484 16.91002082824707 C 1.143659591674805 18.24053192138672 2.098489761352539 20.00000190734863 3.685369491577148 20.00000190734863 L 22.31463050842285 20.00000190734863 C 23.9015007019043 20.00000190734863 24.8563404083252 18.24053192138672 23.99151039123535 16.91002082824707 L 14.67689037322998 2.57982063293457 C 14.28254508972168 1.973140716552734 13.64127254486084 1.669801712036133 13 1.669801712036133 M 13 -0.3301982879638672 C 14.35923957824707 -0.3301982879638672 15.61297988891602 0.3501815795898438 16.3537712097168 1.489831924438477 L 25.66839981079102 15.82004165649414 C 26.46857070922852 17.05108070373535 26.53059959411621 18.61745071411133 25.83028984069824 19.90791130065918 C 25.12998008728027 21.19836044311523 23.78285980224609 22.00000190734863 22.31463050842285 22.00000190734863 L 3.685369491577148 22.00000190734863 C 2.217140197753906 22.00000190734863 0.8700199127197266 21.19836044311523 0.1697101593017578 19.90792083740234 C -0.5305995941162109 18.61747169494629 -0.4685802459716797 17.05109024047852 0.3315906524658203 15.8200511932373 L 9.646219253540039 1.489841461181641 C 10.38698959350586 0.3501911163330078 11.64074039459229 -0.3301982879638672 13 -0.3301982879638672 Z" stroke="none" fill="#DE0655"/>
    </g>
    <path id="패스_10867" data-name="패스 10867" d="M-17660.34-21440.416v5.932" transform="translate(17673.289 21448.068)" fill="none" stroke="#DE0655" stroke-linecap="round" stroke-width="2"/>
    <path id="패스_10868" data-name="패스 10868" d="M-17660.34-21440.416v.174" transform="translate(17673.289 21457.404)" fill="none" stroke="#DE0655" stroke-linecap="round" stroke-width="2"/>
  </g>
</svg>
